<svg xmlns="http://www.w3.org/2000/svg" xmlns:xlink="http://www.w3.org/1999/xlink" width="188" height="349"><defs><path id="a" d="M500.504 664.631c12.302 6.135 25.796 20.689 16.165 39.873-9.632 19.184-21.868 20.908-26.13 18.783-6.97-3.476 21.702-18.225-3.92-31-25.62-12.775-22.917 17.618-30.583 13.796-7.667-3.823-5.552-22.204-.583-32.103 9.848-19.614 31.745-15.983 45.05-9.349z"/><path id="b" d="M476.065 699.874l-141.07 262.625 24.603 13.5 125.656-274.69z"/><path id="d" d="M517.368 627.65c7.127 3.708 7.47 20.833 1.058 33.735-6.413 12.9-25.905 43.223-28.53 46.849-3.837 5.297-6.224 4.128-12.951.74-6.728-3.387-8.738-3.555-6.338-10.454 1.372-3.946 14.929-42.691 19.305-51.495 4.376-8.805 19.98-23.266 27.456-19.375z"/><path id="e" d="M516.117 628.057c7.127 3.71 7.47 20.833 1.058 33.735-6.413 12.902-25.905 43.224-28.53 46.849-3.837 5.298-6.225 4.129-12.952.74-6.727-3.387-8.737-3.553-6.337-10.454 1.372-3.945 14.929-42.69 19.305-51.495 4.376-8.804 19.98-23.265 27.456-19.375z"/><path id="f" d="M516.57 633.473c-4.14-4.692-5.724 17.673-1.966 18.724 3.758 1.05 7.488-12.465 1.967-18.724z"/><clipPath id="c"><use fill="#fff" xlink:href="#a"/></clipPath></defs><use fill="#ebebeb" xlink:href="#b" opacity=".3" transform="translate(-335 -627)"/><use fill="#fff" fill-opacity="0" stroke="#b7b7b7" stroke-dasharray="0 4" stroke-linecap="round" stroke-miterlimit="50" stroke-width="4" clip-path="url(&quot;#c&quot;)" xlink:href="#a" transform="translate(-335 -627)"/><g transform="translate(-335 -627)"><use fill="#fff" xlink:href="#d"/><use fill="#d8d8d8" xlink:href="#d"/></g><use fill="#e5f8fc" xlink:href="#e" transform="translate(-335 -627)"/><use fill="#f7f8fa" xlink:href="#f" transform="translate(-335 -627)"/></svg>