<svg xmlns="http://www.w3.org/2000/svg" xmlns:xlink="http://www.w3.org/1999/xlink" width="207" height="394"><defs><path id="a" d="M1455.526 472.204c13.797 6.559 29.075 22.409 18.718 43.81-10.358 21.402-23.935 23.536-28.715 21.263-7.818-3.716 23.8-20.563-4.934-34.222-28.733-13.659-25.163 19.915-33.761 15.828-8.598-4.087-6.587-24.46-1.243-35.503 10.59-21.883 35.013-18.27 49.935-11.176z"/><path id="b" d="M1423.562 521.116l-151.933 295.09 27.597 14.575 134.576-308.238z"/><path id="d" d="M1471.481 437.676c7.996 3.972 8.695 22.91 1.801 37.301-6.894 14.391-28.011 48.297-30.864 52.356-4.17 5.932-6.847 4.682-14.391 1.06-7.545-3.624-9.784-3.772-7.243-11.45 1.453-4.39 15.813-47.503 20.518-57.324 4.704-9.821 21.792-26.108 30.18-21.943z"/><path id="e" d="M1470.097 438.15c7.996 3.971 8.695 22.91 1.801 37.3-6.894 14.392-28.011 48.298-30.864 52.357-4.17 5.931-6.847 4.683-14.392 1.06-7.545-3.624-9.783-3.771-7.242-11.45 1.453-4.39 15.813-47.504 20.518-57.324 4.704-9.82 21.792-26.108 30.18-21.943z"/><path id="f" d="M1470.702 444.134c-4.692-5.115-6.04 19.657-1.84 20.75 4.198 1.092 8.097-13.93 1.84-20.75z"/><clipPath id="c"><use fill="#fff" xlink:href="#a"/></clipPath></defs><use fill="#ebebeb" xlink:href="#b" opacity=".3" transform="translate(-1271 -437)"/><use fill="#fff" fill-opacity="0" stroke="#b7b7b7" stroke-dasharray="0 4" stroke-linecap="round" stroke-miterlimit="50" stroke-width="4" clip-path="url(&quot;#c&quot;)" xlink:href="#a" transform="translate(-1271 -437)"/><g transform="translate(-1271 -437)"><use fill="#fff" xlink:href="#d"/><use fill="#d8d8d8" xlink:href="#d"/></g><use fill="#e5f8fc" xlink:href="#e" transform="translate(-1271 -437)"/><use fill="#fff" xlink:href="#f" transform="translate(-1271 -437)"/></svg>