<svg xmlns="http://www.w3.org/2000/svg" xmlns:xlink="http://www.w3.org/1999/xlink" width="298" height="563"><defs><path id="a" d="M353.5 389.6c12.306 6.137 25.802 20.698 16.169 39.893-9.634 19.194-21.872 20.919-26.135 18.793-6.972-3.477 21.706-18.235-3.92-31.017-25.627-12.782-22.922 17.628-30.59 13.803-7.668-3.824-5.554-22.216-.583-32.12 9.85-19.625 31.751-15.991 45.06-9.353z"/><path id="b" d="M331.435 421.13L75.985 909.632l19.609 10.77 243.165-498.128z"/><path id="c" d="M368.365 358.62c7.128 3.711 7.472 20.845 1.057 33.753-6.414 12.909-25.91 43.247-28.536 46.875-3.837 5.3-6.225 4.13-12.953.741-6.729-3.39-8.74-3.556-6.34-10.46 1.373-3.948 14.933-42.714 19.31-51.523 4.377-8.809 19.984-23.278 27.462-19.385z"/><path id="e" d="M367.113 359.028c7.128 3.712 7.472 20.845 1.058 33.754-6.414 12.908-25.91 43.246-28.536 46.873-3.838 5.301-6.225 4.131-12.954.742-6.728-3.39-8.739-3.557-6.338-10.46 1.372-3.948 14.931-42.714 19.308-51.523 4.378-8.809 19.985-23.278 27.462-19.386z"/><path id="f" d="M367.567 364.447c-4.14-4.694-5.726 17.682-1.967 18.734 3.759 1.052 7.49-12.472 1.967-18.734z"/><clipPath id="d"><use fill="#fff" xlink:href="#a"/></clipPath></defs><use fill="#ebebeb" xlink:href="#b" opacity=".3" transform="translate(-76 -358)"/><g transform="translate(-76 -358)"><use fill="#fff" xlink:href="#c"/><use fill="#d8d8d8" xlink:href="#c"/></g><use fill="#fff" fill-opacity="0" stroke="#b7b7b7" stroke-dasharray="0 4" stroke-linecap="round" stroke-miterlimit="50" stroke-width="4" clip-path="url(&quot;#d&quot;)" xlink:href="#a" transform="translate(-76 -358)"/><use fill="#e5f8fc" xlink:href="#e" transform="translate(-76 -358)"/><use fill="#f7f8fa" xlink:href="#f" transform="translate(-76 -358)"/></svg>