<svg xmlns="http://www.w3.org/2000/svg" xmlns:xlink="http://www.w3.org/1999/xlink" width="300" height="568"><defs><path id="a" d="M1650.5 383.62c12.306 6.135 25.802 20.69 16.169 39.88-9.634 19.188-21.872 20.912-26.135 18.786-6.972-3.476 21.706-18.228-3.92-31.006-25.627-12.778-22.922 17.622-30.59 13.8-7.668-3.825-5.554-22.21-.583-32.11 9.85-19.62 31.751-15.986 45.06-9.35z"/><path id="b" d="M1626.435 420.13l-255.45 488.503 19.609 10.769 243.165-498.127z"/><path id="c" d="M1665.365 352.651c7.128 3.71 7.472 20.838 1.057 33.742-6.414 12.904-25.91 43.232-28.536 46.858-3.837 5.299-6.225 4.13-12.953.741-6.729-3.389-8.74-3.555-6.34-10.457 1.373-3.946 14.933-42.698 19.31-51.504 4.377-8.806 19.984-23.27 27.462-19.38z"/><path id="e" d="M1664.113 353.06c7.129 3.709 7.472 20.837 1.058 33.74-6.414 12.904-25.91 43.232-28.536 46.858-3.838 5.3-6.225 4.13-12.954.741-6.728-3.388-8.739-3.554-6.338-10.456 1.372-3.946 14.931-42.699 19.309-51.505 4.377-8.806 19.984-23.27 27.461-19.379z"/><path id="f" d="M1664.567 358.476c-4.14-4.693-5.726 17.677-1.967 18.728 3.759 1.05 7.49-12.468 1.967-18.728z"/><clipPath id="d"><use fill="#fff" xlink:href="#a"/></clipPath></defs><use fill="#ebebeb" xlink:href="#b" opacity=".3" transform="translate(-1371 -352)"/><g transform="translate(-1371 -352)"><use fill="#fff" xlink:href="#c"/><use fill="#d8d8d8" xlink:href="#c"/></g><use fill="#fff" fill-opacity="0" stroke="#b7b7b7" stroke-dasharray="0 4" stroke-linecap="round" stroke-miterlimit="50" stroke-width="4" clip-path="url(&quot;#d&quot;)" xlink:href="#a" transform="translate(-1371 -352)"/><use fill="#e5f8fc" xlink:href="#e" transform="translate(-1371 -352)"/><use fill="#f7f8fa" xlink:href="#f" transform="translate(-1371 -352)"/></svg>